<?xml version="1.0" encoding="utf-8"?>
<!-- Generator: Adobe Illustrator 25.4.1, SVG Export Plug-In . SVG Version: 6.00 Build 0)  -->
<svg version="1.1" xmlns="http://www.w3.org/2000/svg" xmlns:xlink="http://www.w3.org/1999/xlink" x="0px" y="0px"
	 viewBox="0 0 3300 3090" style="enable-background:new 0 0 3300 3090;" xml:space="preserve">
<style type="text/css">
	.st0{stroke:#000000;stroke-width:10;stroke-miterlimit:10;}
	.st1{fill:none;stroke:#1F9DFF;stroke-width:10;stroke-miterlimit:10;}
	.st2{fill:none;stroke:#000000;stroke-width:10;stroke-miterlimit:10;}
</style>
<g id="background">
	<rect x="67.6" y="301" class="st0" width="3063.6" height="2559.6"/>
	<g transform="scale(15) translate(10, 10)">
		<g id="SvgjsG1125">
		</g>
		<g id="SvgjsG1126" transform="matrix(1.2925572623263464,0,0,1.2925572623263464,35.434325522259535,3.4402783036228426)">
			<g>
				<path class="st1" d="M43.3,28.5c-3.9,7.1-7.6,14.4-10.9,21.7c-1.7,3.7-3.5,7.5-4.5,11.5c-1,4,0.1,8.4,2.8,11.7
					c5.5,6.7,16.5,7.7,23.3,2.1c3.3-2.7,5.2-6.7,5.2-10.7c0-2.2-0.7-4.3-1.5-6.4c-0.7-1.8-1.4-3.6-2.2-5.3
					c-3.3-7.7-7.2-15.2-11.1-22.6C44,29.8,43.6,29.2,43.3,28.5 M43.3,82.8c-6.1,0-12-2.7-15.7-7.2c-1.8-2.2-3.1-4.8-3.6-7.5
					c-0.7-3.2-0.2-6.3,0.8-9.3c1.6-4.8,3.8-9.5,6-14.1c2.3-4.7,4.7-9.4,7.1-14.1c1.2-2.3,2.3-4.7,3.7-6.8c0.8-1.3,2.7-1.3,3.5,0
					c0.1,0.2,0.3,0.5,0.4,0.7c0.7,1.2,1.3,2.5,2,3.7c4.8,9,9.6,18.1,13.3,27.6c1,2.6,2.1,5.3,2.3,8.1c0.1,2.9-0.4,5.7-1.7,8.4
					c-2.5,5-7.5,8.8-13.4,10.1C46.3,82.7,44.8,82.8,43.3,82.8"/>
				<path class="st1" d="M54.6,69.7c-0.9,0-1.8-0.7-1.9-1.5c-0.1-0.7,0.4-1.1,0.4-1.7c0.2-1.2-0.1-2.5-0.4-3.7
					c-1-3.5-2.8-6.8-4.6-9.9c-0.7-1.3-2.5-3.3-0.4-4.3c1.4-0.7,2.3,0.3,3,1.3c2.2,3.4,4.1,7.1,5.4,10.8c0.6,1.7,1.1,3.6,0.9,5.5
					C57,67.4,56.5,69.7,54.6,69.7"/>
			</g>
		</g>
		<g id="SvgjsG1127" transform="matrix(1.2873502755582542,0,0,1.2873502755582542,-0.15126328292566218,149.5632547607732)">
			<path class="st1" d="M25.3-5.6c0.1,0.1,0,0.3,0,0.4C25.1-5.1,25-5,24.8-5h-9.7c-0.2,0-0.3-0.1-0.4-0.2c-0.1-0.1-0.1-0.3,0-0.4
				l0.5-1c0.1-0.2,0.3-0.3,0.5-0.3h6.8l-0.4-1l-2-4.3l-2,4.3c-0.1,0.2-0.3,0.3-0.5,0.3h-1.2c-0.2,0-0.3-0.1-0.4-0.2
				c-0.1-0.1-0.1-0.3,0-0.4l3-6.4c0.1-0.2,0.3-0.3,0.5-0.3h1.4c0.2,0,0.4,0.1,0.5,0.3L25.3-5.6z M35.2-13.4c1,0.9,1.5,2.1,1.5,3.5
				c0,1.2-0.4,2.3-1.1,3.2l0.6,0.5c0.2,0.2,0.2,0.5,0,0.7l-0.8,0.7c-0.1,0.1-0.2,0.1-0.4,0.1s-0.3-0.1-0.4-0.1L34-5.5
				c-0.8,0.4-1.7,0.6-2.7,0.6c-1.6,0-2.9-0.5-3.9-1.5c-1-0.9-1.5-2.1-1.5-3.5s0.5-2.6,1.5-3.5c1-1,2.3-1.5,3.9-1.5
				C32.9-14.9,34.2-14.4,35.2-13.4L35.2-13.4z M31.6-8.3L32.4-9c0.2-0.2,0.5-0.2,0.7,0l1,0.9c0.3-0.5,0.5-1.1,0.5-1.8
				c0-0.9-0.3-1.6-0.9-2.2c-0.6-0.6-1.4-0.9-2.4-0.9c-1,0-1.8,0.3-2.4,0.9c-0.6,0.6-0.9,1.3-0.9,2.2s0.3,1.6,0.9,2.2
				c0.6,0.6,1.4,0.9,2.4,0.9c0.4,0,0.7,0,1.1-0.1l-0.8-0.7c-0.1-0.1-0.1-0.2-0.1-0.3C31.5-8.1,31.5-8.2,31.6-8.3L31.6-8.3z M47-14.9
				c0.3,0,0.5,0.2,0.5,0.5v5c0,1.3-0.4,2.4-1.3,3.2c-0.9,0.8-2,1.2-3.3,1.2s-2.5-0.4-3.3-1.2c-0.9-0.8-1.3-1.9-1.3-3.2v-5
				c0-0.3,0.2-0.5,0.5-0.5h1.1c0.3,0,0.5,0.2,0.5,0.5v5.1c0,0.8,0.2,1.5,0.8,1.9c0.4,0.4,1,0.6,1.7,0.6c0.7,0,1.3-0.2,1.7-0.6
				c0.5-0.4,0.8-1.1,0.8-1.9v-5.1c0-0.3,0.2-0.5,0.5-0.5H47L47-14.9z M55.1-14.6l4.1,8.8c0,0.1,0.1,0.1,0.1,0.2
				c0,0.3-0.2,0.5-0.5,0.5l0,0h-1.2c-0.2,0-0.4-0.1-0.5-0.3L56-7.7h-4.1l-1,2.3c-0.1,0.2-0.3,0.3-0.5,0.3h-1.2
				c-0.2,0-0.3-0.1-0.4-0.2c-0.1-0.1-0.1-0.3,0-0.4l4.1-8.9c0.1-0.2,0.3-0.3,0.5-0.3h1.4C54.8-14.9,55-14.8,55.1-14.6L55.1-14.6z
				 M53.9-12.2l-1.2,2.7h2.4L53.9-12.2z M65.2-14.9c0.3,0,0.5,0.2,0.5,0.5v8.9c0,0.3-0.2,0.5-0.5,0.5h-1.1c-0.3,0-0.5-0.2-0.5-0.5
				v-8.9c0-0.3,0.2-0.5,0.5-0.5L65.2-14.9L65.2-14.9z M70.5-6.9c0.3,0,0.5,0.2,0.5,0.5v1C71-5.2,70.8-5,70.5-5h-3.4
				c-0.3,0-0.5-0.2-0.5-0.5v-1c0-0.3,0.2-0.5,0.5-0.5L70.5-6.9L70.5-6.9z M77.8-14.6l4.1,8.8c0,0.1,0.1,0.1,0.1,0.2
				c0,0.3-0.2,0.5-0.5,0.5l0,0h-1.2c-0.2,0-0.4-0.1-0.5-0.3l-1.1-2.3h-4.1l-1,2.3c-0.1,0.2-0.3,0.3-0.5,0.3h-1.2
				c-0.2,0-0.3-0.1-0.4-0.2c-0.1-0.1-0.1-0.3,0-0.4l4.1-8.9c0.1-0.2,0.3-0.3,0.5-0.3h1.4C77.5-14.9,77.7-14.8,77.8-14.6L77.8-14.6z
				 M76.6-12.2l-1.2,2.7h2.4L76.6-12.2z M93.4-10.2L93.4-10.2c0,0.1,0,0.2,0,0.3c0,0.2,0,0.4,0,0.7c-0.1,1.1-0.6,2.1-1.5,2.9
				c-1,1-2.3,1.5-3.9,1.5S85.1-5.4,84-6.3c-1-0.9-1.5-2.1-1.5-3.5s0.5-2.6,1.5-3.5c1-1,2.3-1.5,3.9-1.5s2.9,0.5,3.9,1.5
				c0.4,0.4,0.7,0.8,1,1.3c0,0.1,0.1,0.2,0.1,0.3c0,0.3-0.2,0.5-0.5,0.5l0,0h-1.2c-0.2,0-0.3-0.1-0.4-0.2c-0.1-0.2-0.2-0.3-0.4-0.4
				C89.8-12.7,89-13,88-13s-1.8,0.3-2.4,0.9c-0.6,0.6-0.9,1.3-0.9,2.2s0.3,1.6,0.9,2.2c0.6,0.6,1.4,0.9,2.4,0.9s1.8-0.3,2.4-0.9
				c0.3-0.3,0.6-0.7,0.7-1.1h-3c-0.3,0-0.5-0.2-0.5-0.5v-0.9c0-0.3,0.2-0.5,0.5-0.5h4.8C93.1-10.7,93.3-10.5,93.4-10.2L93.4-10.2z
				 M103.6-14.9c0.3,0,0.5,0.2,0.5,0.5v5c0,1.3-0.4,2.4-1.3,3.2c-0.9,0.8-2,1.2-3.3,1.2S97-5.4,96.2-6.2c-0.9-0.8-1.3-1.9-1.3-3.2
				v-5c0-0.3,0.2-0.5,0.5-0.5h1.1c0.3,0,0.5,0.2,0.5,0.5v5.1c0,0.8,0.2,1.5,0.8,1.9c0.4,0.4,1,0.6,1.7,0.6c0.7,0,1.3-0.2,1.7-0.6
				c0.5-0.4,0.8-1.1,0.8-1.9v-5.1c0-0.3,0.2-0.5,0.5-0.5H103.6L103.6-14.9z M115.2-14.9c0.3,0,0.5,0.2,0.5,0.5v8.9
				c0,0.3-0.2,0.5-0.5,0.5h-1.3c-0.2,0-0.3-0.1-0.4-0.2l-5.1-6.3v6.1c0,0.3-0.2,0.5-0.5,0.5h-1.1c-0.3,0-0.5-0.2-0.5-0.5v-8.9
				c0-0.3,0.2-0.5,0.5-0.5h1.3c0.2,0,0.3,0.1,0.4,0.2l5.1,6.3v-6c0-0.3,0.2-0.5,0.5-0.5H115.2L115.2-14.9z M123.4-14.6l4.1,8.8
				c0,0.1,0.1,0.1,0.1,0.2c0,0.3-0.2,0.5-0.5,0.5l0,0h-1.2c-0.2,0-0.4-0.1-0.5-0.3l-1.1-2.3h-4.1l-1,2.3c-0.1,0.2-0.3,0.3-0.5,0.3
				h-1.2c-0.2,0-0.3-0.1-0.4-0.2c-0.1-0.1-0.1-0.3,0-0.4l4.1-8.9c0.1-0.2,0.3-0.3,0.5-0.3h1.4C123.2-14.9,123.4-14.8,123.4-14.6
				L123.4-14.6z M122.3-12.2l-1.2,2.7h2.4L122.3-12.2z"/>
		</g>
	</g>
	<rect x="67.6" y="301" class="st2" width="3063.6" height="2559.6"/>
</g>
<g id="Base_Image">
</g>
</svg>
